<?xml version="1.0" encoding="utf-8"?>
<svg fill="white" version="1.1" xmlns="http://www.w3.org/2000/svg" xmlns:xlink="http://www.w3.org/1999/xlink" x="0px" y="0px" viewBox="0 0 1000 1000" enable-background="new 0 0 1000 1000" xml:space="preserve">
<g><path d="M82.7,469.4L487,65.1c6.1-6.1,18.4-6.1,24.5,0l404.2,404.2c6.1,6.1,12.2,6.1,18.4,6.1c6.2,0,12.3,0,18.4-6.1c12.2-12.2,12.2-24.5,0-36.7L542.1,28.4c-24.5-24.5-73.5-24.5-98.1,0L39.8,432.6c-6.1,6.1-6.1,24.5,0,36.7C46,481.6,70.4,481.6,82.7,469.4L82.7,469.4z"/><path d="M39.8,653.1H144v330.7h49V653.1h104.1v-36.7H39.8V653.1z"/><path d="M487,610.2c-55.1,0-98,18.4-128.6,55.1c-30.7,36.8-49,85.8-49,140.9c0,55.1,18.4,98,49,134.8c30.6,30.7,73.5,49,122.5,49c55.1,0,98-18.4,128.6-55.2c30.7-36.7,49-85.8,49-140.9c0-55.1-18.4-97.9-49-134.7C585,622.4,542.1,610.2,487,610.2L487,610.2z M578.9,910.4c-24.5,24.5-55.2,36.8-91.9,36.8c-36.7,0-67.3-12.3-91.9-42.9c-24.5-24.5-36.7-61.3-36.7-110.3c0-42.8,12.2-79.6,36.7-110.2c24.5-24.5,55.1-42.9,91.9-42.9c36.7,0,67.4,12.2,91.9,36.8c24.5,24.5,30.6,61.2,30.6,110.2C609.5,849,597.2,879.7,578.9,910.4L578.9,910.4z"/><path d="M927.9,640.9c-24.4-18.4-55.1-30.7-91.9-30.7H732v367.5h49V836.8h49c36.7,0,73.5-12.2,97.9-30.6c24.6-24.5,36.8-49,36.8-85.7C964.7,689.9,952.5,659.3,927.9,640.9L927.9,640.9z M891.2,781.7c-12.2,12.2-36.7,18.4-67.3,18.4H781v-147h49c55.1,0,85.7,24.5,85.7,73.5C915.7,751.1,903.5,769.5,891.2,781.7L891.2,781.7z"/></g>
</svg>